<svg xmlns="http://www.w3.org/2000/svg" viewBox="0 0 2800 1900" width="2800" height="1900" style="background:#0b1329; font-family: 'Segoe UI', system-ui, -apple-system, sans-serif;">
  <defs>
    <!-- Shadows & Glows -->
    <filter id="cardShadow" x="-15%" y="-15%" width="130%" height="130%">
      <feDropShadow dx="3" dy="6" stdDeviation="5" flood-color="#000000" flood-opacity="0.6"/>
    </filter>
    <filter id="glow" x="-20%" y="-20%" width="140%" height="140%">
      <feGaussianBlur stdDeviation="4" result="blur" />
      <feComposite in="SourceGraphic" in2="blur" operator="over"/>
    </filter>

    <!-- Gradients -->
    <linearGradient id="strongGrad" x1="0%" y1="0%" x2="100%" y2="100%">
      <stop offset="0%" stop-color="#0369a1"/>
      <stop offset="100%" stop-color="#0284c7"/>
    </linearGradient>
    <linearGradient id="weakGrad" x1="0%" y1="0%" x2="100%" y2="100%">
      <stop offset="0%" stop-color="#0f766e"/>
      <stop offset="100%" stop-color="#0d9488"/>
    </linearGradient>
    <linearGradient id="relGrad" x1="0%" y1="0%" x2="100%" y2="100%">
      <stop offset="0%" stop-color="#b45309"/>
      <stop offset="100%" stop-color="#d97706"/>
    </linearGradient>
    <linearGradient id="idRelGrad" x1="0%" y1="0%" x2="100%" y2="100%">
      <stop offset="0%" stop-color="#c2410c"/>
      <stop offset="100%" stop-color="#ea580c"/>
    </linearGradient>

    <style>
      .title { fill: #f8fafc; font-size: 28px; font-weight: 800; letter-spacing: -0.5px; }
      .subtitle { fill: #94a3b8; font-size: 15px; font-weight: 500; }
      .badge-txt { fill: #38bdf8; font-size: 13px; font-weight: 700; }

      /* Chen Shapes */
      .strong-entity { fill: url(#strongGrad); stroke: #38bdf8; stroke-width: 2.5px; rx: 4px; filter: url(#cardShadow); }
      .weak-outer { fill: url(#weakGrad); stroke: #2dd4bf; stroke-width: 2px; rx: 5px; filter: url(#cardShadow); }
      .weak-inner { fill: none; stroke: #2dd4bf; stroke-width: 1.5px; rx: 3px; }

      .rel-diamond { fill: url(#relGrad); stroke: #fde047; stroke-width: 2px; filter: url(#cardShadow); }
      .id-rel-outer { fill: url(#idRelGrad); stroke: #fdba74; stroke-width: 2px; filter: url(#cardShadow); }
      .id-rel-inner { fill: none; stroke: #fdba74; stroke-width: 1.5px; }

      .attr-oval { fill: #1e293b; stroke: #64748b; stroke-width: 1.5px; }
      .attr-pk { fill: #3b2d08; stroke: #eab308; stroke-width: 2px; }
      .attr-derived { fill: #1e293b; stroke: #94a3b8; stroke-width: 1.5px; stroke-dasharray: 4, 3; }

      /* Connecting Lines */
      .conn-line { stroke: #64748b; stroke-width: 2px; }
      .conn-id-line { stroke: #fdba74; stroke-width: 2.5px; stroke-dasharray: 6, 3; }
      .attr-line { stroke: #475569; stroke-width: 1.5px; }

      /* Text */
      .entity-label { fill: #ffffff; font-size: 15px; font-weight: 700; text-anchor: middle; dominant-baseline: central; }
      .rel-label { fill: #ffffff; font-size: 12px; font-weight: 700; text-anchor: middle; dominant-baseline: central; }
      .attr-label { fill: #e2e8f0; font-size: 11.5px; font-weight: 500; text-anchor: middle; dominant-baseline: central; }
      .attr-pk-label { fill: #fef08a; font-size: 11.5px; font-weight: 700; text-anchor: middle; dominant-baseline: central; text-decoration: underline; }
      .attr-derived-label { fill: #cbd5e1; font-size: 11px; font-weight: 500; text-anchor: middle; dominant-baseline: central; font-style: italic; }
      
      .card-badge { fill: #fbbf24; font-size: 14px; font-weight: 800; font-family: monospace; text-anchor: middle; dominant-baseline: central; }
      .card-bg { fill: #0f172a; stroke: #fbbf24; stroke-width: 1.5px; rx: 4px; }
      
      .legend-title { fill: #f8fafc; font-size: 16px; font-weight: 700; }
      .legend-txt { fill: #94a3b8; font-size: 12.5px; font-weight: 500; }
    </style>
  </defs>

  <!-- Background Grid Effect -->
  <pattern id="grid" width="60" height="60" patternUnits="userSpaceOnUse">
    <path d="M 60 0 L 0 0 0 60" fill="none" stroke="#1e293b" stroke-width="0.75" stroke-opacity="0.4"/>
  </pattern>
  <rect width="100%" height="100%" fill="url(#grid)"/>

  <!-- ==================== HEADER ==================== -->
  <g transform="translate(60, 50)">
    <text class="title" x="0" y="0">BuyIt Marketplace — Traditional Entity-Relationship Diagram</text>
    <text class="subtitle" x="0" y="28">Classic Peter Chen Notation with Geometric Shapes: Rectangles (Entities), Diamonds (Relationships), Ovals (Attributes), Underlined Keys</text>
  </g>

  <!-- ==================== LEGEND ==================== -->
  <g transform="translate(1950, 40)">
    <rect x="0" y="0" width="790" height="150" rx="10" fill="#0f172a" stroke="#334155" stroke-width="1.5" filter="url(#cardShadow)"/>
    <text class="legend-title" x="25" y="30">Traditional ER Notation Legend (Peter Chen Standard)</text>

    <!-- Strong Entity -->
    <rect x="25" y="48" width="100" height="34" rx="4" class="strong-entity"/>
    <text class="entity-label" x="75" y="65" font-size="12">Strong Entity</text>

    <!-- Weak Entity -->
    <rect x="145" y="48" width="100" height="34" rx="5" class="weak-outer"/>
    <rect x="149" y="52" width="92" height="26" rx="3" class="weak-inner"/>
    <text class="entity-label" x="195" y="65" font-size="12">Weak Entity</text>

    <!-- Relationship -->
    <polygon points="310,48 355,65 310,82 265,65" class="rel-diamond"/>
    <text class="rel-label" x="310" y="65" font-size="11">Relation</text>

    <!-- Identifying Relationship -->
    <polygon points="420,48 465,65 420,82 375,65" class="id-rel-outer"/>
    <polygon points="420,53 457,65 420,77 383,65" class="id-rel-inner"/>
    <text class="rel-label" x="420" y="65" font-size="10">Ident. Rel</text>

    <!-- Key Attribute -->
    <ellipse cx="535" cy="65" rx="50" ry="18" class="attr-pk"/>
    <text class="attr-pk-label" x="535" y="65">Key (PK)</text>

    <!-- Regular Attribute -->
    <ellipse cx="645" cy="65" rx="45" ry="18" class="attr-oval"/>
    <text class="attr-label" x="645" y="65">Attribute</text>

    <!-- Derived Attribute -->
    <ellipse cx="735" cy="65" rx="42" ry="18" class="attr-derived"/>
    <text class="attr-derived-label" x="735" y="65">Derived</text>

    <!-- Row 2 info -->
    <text class="legend-txt" x="25" y="115">Cardinality Ratios: <tspan fill="#fbbf24" font-weight="700">1:1</tspan> (One-to-One), <tspan fill="#fbbf24" font-weight="700">1:N</tspan> (One-to-Many), <tspan fill="#fbbf24" font-weight="700">M:N</tspan> (Many-to-Many). Double Borders denote existence dependency.</text>
  </g>

  <!-- ==================== CONNECTING LINES LAYER ==================== -->
  <g id="connections">
    <!-- User to Operates to Vendor -->
    <line x1="470" y1="400" x2="620" y2="400" class="conn-line"/>
    <line x1="720" y1="400" x2="870" y2="400" class="conn-line"/>

    <!-- User to Has_Saved to Address -->
    <line x1="330" y1="400" x2="260" y2="400" class="conn-line"/>
    <line x1="160" y1="400" x2="110" y2="400" class="conn-line"/>

    <!-- User to Notified_By to Notification -->
    <line x1="400" y1="365" x2="400" y2="285" class="conn-id-line"/>
    <line x1="400" y1="215" x2="400" y2="160" class="conn-id-line"/>

    <!-- User to Owns_Cart to Cart -->
    <line x1="400" y1="435" x2="400" y2="520" class="conn-id-line"/>
    <line x1="400" y1="590" x2="400" y2="675" class="conn-id-line"/>

    <!-- Cart to Holds_Items to CartItem -->
    <line x1="470" y1="710" x2="620" y2="710" class="conn-id-line"/>
    <line x1="720" y1="710" x2="870" y2="710" class="conn-id-line"/>

    <!-- CartItem to Ref_Product to Product -->
    <line x1="1010" y1="710" x2="1160" y2="710" class="conn-line"/>
    <line x1="1260" y1="710" x2="1410" y2="635" class="conn-line"/>

    <!-- User to Owns_Wishlist to Wishlist -->
    <line x1="370" y1="435" x2="370" y2="920" class="conn-id-line"/>
    <line x1="370" y1="990" x2="370" y2="1045" class="conn-id-line"/>

    <!-- Wishlist to Stores_Items to WishlistItem -->
    <line x1="470" y1="1080" x2="620" y2="1080" class="conn-id-line"/>
    <line x1="720" y1="1080" x2="870" y2="1080" class="conn-id-line"/>

    <!-- WishlistItem to Ref_Product to Product -->
    <line x1="1010" y1="1080" x2="1160" y2="1080" class="conn-line"/>
    <line x1="1260" y1="1080" x2="1450" y2="635" class="conn-line"/>

    <!-- Vendor to Supplies to Product -->
    <line x1="1010" y1="400" x2="1180" y2="465" class="conn-line"/>
    <line x1="1270" y1="500" x2="1410" y2="570" class="conn-line"/>

    <!-- Category to Classifies to Product -->
    <line x1="1500" y1="235" x2="1500" y2="330" class="conn-line"/>
    <line x1="1500" y1="400" x2="1500" y2="565" class="conn-line"/>

    <!-- Brand to Manufactures to Product -->
    <line x1="1840" y1="360" x2="1740" y2="440" class="conn-line"/>
    <line x1="1660" y1="500" x2="1590" y2="565" class="conn-line"/>

    <!-- Product to Has_Gallery to ProductImage -->
    <line x1="1590" y1="600" x2="1760" y2="600" class="conn-id-line"/>
    <line x1="1860" y1="600" x2="2010" y2="600" class="conn-id-line"/>

    <!-- User to Places to Order -->
    <path d="M 400 435 L 400 500 L 330 500 L 330 1350 L 520 1350" fill="none" class="conn-line"/>
    <line x1="620" y1="1350" x2="770" y2="1350" class="conn-line"/>

    <!-- Address to Delivered_To to Order -->
    <path d="M 50 435 L 50 1480 L 700 1480 L 770 1440" fill="none" class="conn-line"/>

    <!-- Order to Settled_With to Payment -->
    <line x1="910" y1="1350" x2="1080" y2="1350" class="conn-id-line"/>
    <line x1="1180" y1="1350" x2="1350" y2="1350" class="conn-id-line"/>

    <!-- Order to Applies to Coupon -->
    <line x1="840" y1="1385" x2="840" y2="1550" class="conn-line"/>
    <line x1="840" y1="1620" x2="840" y2="1710" class="conn-line"/>

    <!-- Order to Consists_Of to OrderItem -->
    <line x1="870" y1="1385" x2="980" y2="1480" class="conn-id-line"/>
    <line x1="1060" y1="1540" x2="1170" y2="1625" class="conn-id-line"/>

    <!-- Product to Ref_OrderItem to OrderItem -->
    <path d="M 1500 635 L 1500 1200 L 1290 1550 L 1270 1625" fill="none" class="conn-line"/>

    <!-- Vendor to Fulfills to OrderItem -->
    <path d="M 940 435 L 940 1200 L 1150 1520 L 1210 1625" fill="none" class="conn-line"/>

    <!-- User to Writes to Review -->
    <path d="M 400 365 L 400 320 L 1050 320 L 1050 260 L 2100 260 L 2100 850 L 2190 850" fill="none" class="conn-line"/>
    <line x1="2290" y1="850" x2="2420" y2="850" class="conn-line"/>

    <!-- Product to Receives to Review -->
    <line x1="1590" y1="620" x2="2190" y2="830" class="conn-line"/>
    <line x1="2290" y1="860" x2="2420" y2="860" class="conn-line"/>
  </g>

  <!-- ==================== ENTITY: USER (Strong) ==================== -->
  <g id="entity-user" transform="translate(330, 365)">
    <rect x="0" y="0" width="140" height="70" class="strong-entity"/>
    <text class="entity-label" x="70" y="35">User</text>

    <!-- Attributes -->
    <!-- id (PK) -->
    <line x1="0" y1="10" x2="-60" y2="-40" class="attr-line"/>
    <ellipse cx="-110" cy="-60" rx="55" ry="20" class="attr-pk"/>
    <text class="attr-pk-label" x="-110" y="-60"><u>id (PK)</u></text>

    <!-- email (UK) -->
    <line x1="20" y1="0" x2="-10" y2="-70" class="attr-line"/>
    <ellipse cx="-30" cy="-95" rx="60" ry="20" class="attr-pk"/>
    <text class="attr-pk-label" x="-30" y="-95"><u>email (UK)</u></text>

    <!-- name -->
    <line x1="70" y1="0" x2="70" y2="-70" class="attr-line"/>
    <ellipse cx="70" cy="-95" rx="45" ry="18" class="attr-oval"/>
    <text class="attr-label" x="70" y="-95">name</text>

    <!-- phone -->
    <line x1="120" y1="0" x2="150" y2="-65" class="attr-line"/>
    <ellipse cx="170" cy="-85" rx="45" ry="18" class="attr-oval"/>
    <text class="attr-label" x="170" y="-85">phone</text>

    <!-- password -->
    <line x1="-5" y1="40" x2="-80" y2="20" class="attr-line"/>
    <ellipse cx="-130" cy="20" rx="52" ry="18" class="attr-oval"/>
    <text class="attr-label" x="-130" y="20">password</text>

    <!-- role -->
    <line x1="-5" y1="60" x2="-80" y2="70" class="attr-line"/>
    <ellipse cx="-130" cy="75" rx="45" ry="18" class="attr-oval"/>
    <text class="attr-label" x="-130" y="75">role</text>

    <!-- status -->
    <line x1="20" y1="70" x2="-10" y2="120" class="attr-line"/>
    <ellipse cx="-20" cy="140" rx="45" ry="18" class="attr-oval"/>
    <text class="attr-label" x="-20" y="140">status</text>

    <!-- created_at -->
    <line x1="70" y1="70" x2="70" y2="120" class="attr-line"/>
    <ellipse cx="70" cy="140" rx="55" ry="18" class="attr-oval"/>
    <text class="attr-label" x="70" y="140">created_at</text>
  </g>

  <!-- Relationship: Operates -->
  <g transform="translate(670, 400)">
    <polygon points="0,-35 50,0 0,35 -50,0" class="rel-diamond"/>
    <text class="rel-label" x="0" y="0">Operates</text>
  </g>
  <!-- Cardinality Badges for Operates -->
  <rect x="520" y="388" width="24" height="24" class="card-bg"/>
  <text class="card-badge" x="532" y="400">1</text>
  <rect x="800" y="388" width="24" height="24" class="card-bg"/>
  <text class="card-badge" x="812" y="400">1</text>

  <!-- ==================== ENTITY: VENDOR (Strong) ==================== -->
  <g id="entity-vendor" transform="translate(870, 365)">
    <rect x="0" y="0" width="140" height="70" class="strong-entity"/>
    <text class="entity-label" x="70" y="35">Vendor</text>

    <!-- Attributes -->
    <!-- id (PK) -->
    <line x1="30" y1="0" x2="10" y2="-60" class="attr-line"/>
    <ellipse cx="0" cy="-80" rx="55" ry="20" class="attr-pk"/>
    <text class="attr-pk-label" x="0" y="-80"><u>id (PK)</u></text>

    <!-- business_name -->
    <line x1="80" y1="0" x2="90" y2="-65" class="attr-line"/>
    <ellipse cx="100" cy="-85" rx="70" ry="19" class="attr-oval"/>
    <text class="attr-label" x="100" y="-85">business_name</text>

    <!-- owner_name -->
    <line x1="120" y1="0" x2="170" y2="-55" class="attr-line"/>
    <ellipse cx="200" cy="-75" rx="60" ry="18" class="attr-oval"/>
    <text class="attr-label" x="200" y="-75">owner_name</text>

    <!-- city / state -->
    <line x1="140" y1="35" x2="200" y2="10" class="attr-line"/>
    <ellipse cx="240" cy="10" rx="45" ry="18" class="attr-oval"/>
    <text class="attr-label" x="240" y="10">city, state</text>

    <!-- approval_status -->
    <line x1="140" y1="60" x2="210" y2="70" class="attr-line"/>
    <ellipse cx="270" cy="75" rx="65" ry="19" class="attr-oval"/>
    <text class="attr-label" x="270" y="75">approval_status</text>
  </g>

  <!-- ==================== ENTITY: ADDRESS (Strong) ==================== -->
  <g id="entity-address" transform="translate(0, 365)">
    <rect x="0" y="0" width="110" height="70" class="strong-entity"/>
    <text class="entity-label" x="55" y="35">Address</text>

    <!-- Attributes -->
    <line x1="30" y1="0" x2="10" y2="-50" class="attr-line"/>
    <ellipse cx="0" cy="-70" rx="50" ry="18" class="attr-pk"/>
    <text class="attr-pk-label" x="0" y="-70"><u>id (PK)</u></text>

    <line x1="80" y1="0" x2="90" y2="-50" class="attr-line"/>
    <ellipse cx="95" cy="-70" rx="55" ry="18" class="attr-oval"/>
    <text class="attr-label" x="95" y="-70">address_line</text>

    <line x1="30" y1="70" x2="20" y2="110" class="attr-line"/>
    <ellipse cx="15" cy="130" rx="50" ry="18" class="attr-oval"/>
    <text class="attr-label" x="15" y="130">city, state</text>

    <line x1="80" y1="70" x2="90" y2="110" class="attr-line"/>
    <ellipse cx="100" cy="130" rx="45" ry="18" class="attr-oval"/>
    <text class="attr-label" x="100" y="130">is_default</text>
  </g>
  <!-- Rel: Has_Saved -->
  <g transform="translate(210, 400)">
    <polygon points="0,-30 45,0 0,30 -45,0" class="rel-diamond"/>
    <text class="rel-label" x="0" y="0" font-size="10">Saved</text>
  </g>
  <rect x="270" y="388" width="24" height="24" class="card-bg"/>
  <text class="card-badge" x="282" y="400">1</text>
  <rect x="130" y="388" width="24" height="24" class="card-bg"/>
  <text class="card-badge" x="142" y="400">N</text>

  <!-- ==================== ENTITY: NOTIFICATION (Weak) ==================== -->
  <g id="entity-notification" transform="translate(330, 90)">
    <rect x="0" y="0" width="140" height="70" class="weak-outer"/>
    <rect x="4" y="4" width="132" height="62" class="weak-inner"/>
    <text class="entity-label" x="70" y="35">Notification</text>

    <line x1="0" y1="20" x2="-50" y2="0" class="attr-line"/>
    <ellipse cx="-90" cy="0" rx="50" ry="18" class="attr-pk"/>
    <text class="attr-pk-label" x="-90" y="0"><u>id (PK)</u></text>

    <line x1="0" y1="50" x2="-50" y2="50" class="attr-line"/>
    <ellipse cx="-90" cy="50" rx="45" ry="18" class="attr-oval"/>
    <text class="attr-label" x="-90" y="50">title</text>

    <line x1="70" y1="0" x2="70" y2="-30" class="attr-line"/>
    <ellipse cx="70" cy="-48" rx="45" ry="18" class="attr-oval"/>
    <text class="attr-label" x="70" y="-48">message</text>

    <line x1="140" y1="20" x2="180" y2="10" class="attr-line"/>
    <ellipse cx="220" cy="10" rx="45" ry="18" class="attr-oval"/>
    <text class="attr-label" x="220" y="10">is_read</text>
  </g>
  <!-- Identifying Rel: Notified_By -->
  <g transform="translate(400, 250)">
    <polygon points="0,-35 48,0 0,35 -48,0" class="id-rel-outer"/>
    <polygon points="0,-28 39,0 0,28 -39,0" class="id-rel-inner"/>
    <text class="rel-label" x="0" y="0" font-size="10">Notified_By</text>
  </g>
  <rect x="408" y="300" width="24" height="24" class="card-bg"/>
  <text class="card-badge" x="420" y="312">1</text>
  <rect x="408" y="180" width="24" height="24" class="card-bg"/>
  <text class="card-badge" x="420" y="192">N</text>

  <!-- ==================== ENTITY: PRODUCT (Strong) ==================== -->
  <g id="entity-product" transform="translate(1410, 565)">
    <rect x="0" y="0" width="180" height="70" class="strong-entity"/>
    <text class="entity-label" x="90" y="35">Product</text>

    <!-- Attributes -->
    <line x1="30" y1="0" x2="0" y2="-60" class="attr-line"/>
    <ellipse cx="-15" cy="-80" rx="55" ry="20" class="attr-pk"/>
    <text class="attr-pk-label" x="-15" y="-80"><u>id (PK)</u></text>

    <line x1="80" y1="0" x2="80" y2="-60" class="attr-line"/>
    <ellipse cx="80" cy="-80" rx="45" ry="18" class="attr-oval"/>
    <text class="attr-label" x="80" y="-80">name</text>

    <line x1="130" y1="0" x2="160" y2="-60" class="attr-line"/>
    <ellipse cx="180" cy="-80" rx="45" ry="18" class="attr-oval"/>
    <text class="attr-label" x="180" y="-80">price</text>

    <line x1="180" y1="15" x2="235" y2="-20" class="attr-line"/>
    <ellipse cx="275" cy="-30" rx="45" ry="18" class="attr-oval"/>
    <text class="attr-label" x="275" y="-30">discount</text>

    <!-- Derived Attribute: discounted_price -->
    <line x1="180" y1="40" x2="260" y2="30" class="attr-line"/>
    <ellipse cx="325" cy="30" rx="70" ry="19" class="attr-derived"/>
    <text class="attr-derived-label" x="325" y="30">- - discounted_price - -</text>

    <line x1="170" y1="70" x2="240" y2="100" class="attr-line"/>
    <ellipse cx="280" cy="115" rx="55" ry="18" class="attr-oval"/>
    <text class="attr-label" x="280" y="115">stock_quantity</text>

    <line x1="110" y1="70" x2="120" y2="130" class="attr-line"/>
    <ellipse cx="120" cy="150" rx="45" ry="18" class="attr-oval"/>
    <text class="attr-label" x="120" y="150">sku</text>

    <line x1="50" y1="70" x2="30" y2="130" class="attr-line"/>
    <ellipse cx="20" cy="150" rx="45" ry="18" class="attr-oval"/>
    <text class="attr-label" x="20" y="150">status</text>
  </g>

  <!-- Rel: Supplies (Vendor -> Product) -->
  <g transform="translate(1225, 482)">
    <polygon points="0,-35 50,0 0,35 -50,0" class="rel-diamond"/>
    <text class="rel-label" x="0" y="0">Supplies</text>
  </g>
  <rect x="1050" y="405" width="24" height="24" class="card-bg"/>
  <text class="card-badge" x="1062" y="417">1</text>
  <rect x="1350" y="530" width="24" height="24" class="card-bg"/>
  <text class="card-badge" x="1362" y="542">N</text>

  <!-- ==================== ENTITY: CATEGORY (Strong) ==================== -->
  <g id="entity-category" transform="translate(1430, 165)">
    <rect x="0" y="0" width="140" height="70" class="strong-entity"/>
    <text class="entity-label" x="70" y="35">Category</text>

    <line x1="30" y1="0" x2="10" y2="-45" class="attr-line"/>
    <ellipse cx="0" cy="-65" rx="55" ry="18" class="attr-pk"/>
    <text class="attr-pk-label" x="0" y="-65"><u>id (PK)</u></text>

    <line x1="100" y1="0" x2="120" y2="-45" class="attr-line"/>
    <ellipse cx="135" cy="-65" rx="50" ry="18" class="attr-oval"/>
    <text class="attr-label" x="135" y="-65">name</text>

    <line x1="140" y1="35" x2="190" y2="35" class="attr-line"/>
    <ellipse cx="235" cy="35" rx="50" ry="18" class="attr-oval"/>
    <text class="attr-label" x="235" y="35">description</text>
  </g>
  <!-- Rel: Classifies -->
  <g transform="translate(1500, 365)">
    <polygon points="0,-35 50,0 0,35 -50,0" class="rel-diamond"/>
    <text class="rel-label" x="0" y="0">Classifies</text>
  </g>
  <rect x="1508" y="260" width="24" height="24" class="card-bg"/>
  <text class="card-badge" x="1520" y="272">1</text>
  <rect x="1508" y="470" width="24" height="24" class="card-bg"/>
  <text class="card-badge" x="1520" y="482">N</text>

  <!-- ==================== ENTITY: BRAND (Strong) ==================== -->
  <g id="entity-brand" transform="translate(1840, 290)">
    <rect x="0" y="0" width="130" height="70" class="strong-entity"/>
    <text class="entity-label" x="65" y="35">Brand</text>

    <line x1="25" y1="0" x2="0" y2="-45" class="attr-line"/>
    <ellipse cx="-10" cy="-65" rx="50" ry="18" class="attr-pk"/>
    <text class="attr-pk-label" x="-10" y="-65"><u>id (PK)</u></text>

    <line x1="90" y1="0" x2="110" y2="-45" class="attr-line"/>
    <ellipse cx="125" cy="-65" rx="45" ry="18" class="attr-oval"/>
    <text class="attr-label" x="125" y="-65">name</text>

    <line x1="130" y1="35" x2="180" y2="35" class="attr-line"/>
    <ellipse cx="215" cy="35" rx="40" ry="18" class="attr-oval"/>
    <text class="attr-label" x="215" y="35">logo</text>
  </g>
  <!-- Rel: Manufactures -->
  <g transform="translate(1700, 470)">
    <polygon points="0,-35 55,0 0,35 -55,0" class="rel-diamond"/>
    <text class="rel-label" x="0" y="0" font-size="11">Manufactures</text>
  </g>
  <rect x="1775" y="390" width="24" height="24" class="card-bg"/>
  <text class="card-badge" x="1787" y="402">1</text>
  <rect x="1620" y="525" width="24" height="24" class="card-bg"/>
  <text class="card-badge" x="1632" y="537">N</text>

  <!-- ==================== ENTITY: PRODUCT_IMAGE (Weak) ==================== -->
  <g id="entity-product-image" transform="translate(2010, 565)">
    <rect x="0" y="0" width="150" height="70" class="weak-outer"/>
    <rect x="4" y="4" width="142" height="62" class="weak-inner"/>
    <text class="entity-label" x="75" y="35">ProductImage</text>

    <line x1="30" y1="0" x2="10" y2="-45" class="attr-line"/>
    <ellipse cx="0" cy="-65" rx="50" ry="18" class="attr-pk"/>
    <text class="attr-pk-label" x="0" y="-65"><u>id (PK)</u></text>

    <line x1="110" y1="0" x2="130" y2="-45" class="attr-line"/>
    <ellipse cx="145" cy="-65" rx="55" ry="18" class="attr-oval"/>
    <text class="attr-label" x="145" y="-65">image_url</text>
  </g>
  <!-- Identifying Rel: Has_Gallery -->
  <g transform="translate(1810, 600)">
    <polygon points="0,-35 52,0 0,35 -52,0" class="id-rel-outer"/>
    <polygon points="0,-28 42,0 0,28 -42,0" class="id-rel-inner"/>
    <text class="rel-label" x="0" y="0" font-size="10">Has_Gallery</text>
  </g>
  <rect x="1640" y="588" width="24" height="24" class="card-bg"/>
  <text class="card-badge" x="1652" y="600">1</text>
  <rect x="1930" y="588" width="24" height="24" class="card-bg"/>
  <text class="card-badge" x="1942" y="600">N</text>

  <!-- ==================== ENTITY: CART (Weak) ==================== -->
  <g id="entity-cart" transform="translate(330, 675)">
    <rect x="0" y="0" width="140" height="70" class="weak-outer"/>
    <rect x="4" y="4" width="132" height="62" class="weak-inner"/>
    <text class="entity-label" x="70" y="35">Cart</text>

    <line x1="0" y1="35" x2="-45" y2="35" class="attr-line"/>
    <ellipse cx="-95" cy="35" rx="50" ry="18" class="attr-pk"/>
    <text class="attr-pk-label" x="-95" y="35"><u>id (PK)</u></text>

    <line x1="70" y1="70" x2="70" y2="105" class="attr-line"/>
    <ellipse cx="70" cy="125" rx="55" ry="18" class="attr-oval"/>
    <text class="attr-label" x="70" y="125">created_at</text>
  </g>
  <!-- Identifying Rel: Owns_Cart -->
  <g transform="translate(400, 555)">
    <polygon points="0,-35 48,0 0,35 -48,0" class="id-rel-outer"/>
    <polygon points="0,-28 39,0 0,28 -39,0" class="id-rel-inner"/>
    <text class="rel-label" x="0" y="0" font-size="10">Owns_Cart</text>
  </g>
  <rect x="408" y="460" width="24" height="24" class="card-bg"/>
  <text class="card-badge" x="420" y="472">1</text>
  <rect x="408" y="620" width="24" height="24" class="card-bg"/>
  <text class="card-badge" x="420" y="632">1</text>

  <!-- ==================== ENTITY: CART_ITEM (Weak) ==================== -->
  <g id="entity-cart-item" transform="translate(870, 675)">
    <rect x="0" y="0" width="140" height="70" class="weak-outer"/>
    <rect x="4" y="4" width="132" height="62" class="weak-inner"/>
    <text class="entity-label" x="70" y="35">CartItem</text>

    <line x1="30" y1="0" x2="10" y2="-45" class="attr-line"/>
    <ellipse cx="0" cy="-65" rx="50" ry="18" class="attr-pk"/>
    <text class="attr-pk-label" x="0" y="-65"><u>id (PK)</u></text>

    <line x1="100" y1="0" x2="120" y2="-45" class="attr-line"/>
    <ellipse cx="135" cy="-65" rx="45" ry="18" class="attr-oval"/>
    <text class="attr-label" x="135" y="-65">quantity</text>

    <line x1="70" y1="70" x2="70" y2="105" class="attr-line"/>
    <ellipse cx="70" cy="125" rx="45" ry="18" class="attr-oval"/>
    <text class="attr-label" x="70" y="125">price</text>
  </g>
  <!-- Identifying Rel: Holds_Items -->
  <g transform="translate(670, 710)">
    <polygon points="0,-35 50,0 0,35 -50,0" class="id-rel-outer"/>
    <polygon points="0,-28 40,0 0,28 -40,0" class="id-rel-inner"/>
    <text class="rel-label" x="0" y="0" font-size="10">Holds_Items</text>
  </g>
  <rect x="520" y="698" width="24" height="24" class="card-bg"/>
  <text class="card-badge" x="532" y="710">1</text>
  <rect x="800" y="698" width="24" height="24" class="card-bg"/>
  <text class="card-badge" x="812" y="710">N</text>

  <!-- Rel: CartItem to Product (References) -->
  <g transform="translate(1210, 710)">
    <polygon points="0,-30 45,0 0,30 -45,0" class="rel-diamond"/>
    <text class="rel-label" x="0" y="0" font-size="10">Includes</text>
  </g>
  <rect x="1050" y="698" width="24" height="24" class="card-bg"/>
  <text class="card-badge" x="1062" y="710">N</text>
  <rect x="1350" y="655" width="24" height="24" class="card-bg"/>
  <text class="card-badge" x="1362" y="667">1</text>

  <!-- ==================== ENTITY: WISHLIST (Weak) ==================== -->
  <g id="entity-wishlist" transform="translate(330, 1045)">
    <rect x="0" y="0" width="140" height="70" class="weak-outer"/>
    <rect x="4" y="4" width="132" height="62" class="weak-inner"/>
    <text class="entity-label" x="70" y="35">Wishlist</text>

    <line x1="0" y1="35" x2="-45" y2="35" class="attr-line"/>
    <ellipse cx="-95" cy="35" rx="50" ry="18" class="attr-pk"/>
    <text class="attr-pk-label" x="-95" y="35"><u>id (PK)</u></text>

    <line x1="70" y1="70" x2="70" y2="105" class="attr-line"/>
    <ellipse cx="70" cy="125" rx="55" ry="18" class="attr-oval"/>
    <text class="attr-label" x="70" y="125">created_at</text>
  </g>
  <!-- Identifying Rel: Owns_Wishlist -->
  <g transform="translate(370, 955)">
    <polygon points="0,-35 48,0 0,35 -48,0" class="id-rel-outer"/>
    <polygon points="0,-28 39,0 0,28 -39,0" class="id-rel-inner"/>
    <text class="rel-label" x="0" y="0" font-size="9.5">Owns_Wish</text>
  </g>
  <rect x="378" y="870" width="24" height="24" class="card-bg"/>
  <text class="card-badge" x="390" y="882">1</text>
  <rect x="378" y="1005" width="24" height="24" class="card-bg"/>
  <text class="card-badge" x="390" y="1017">1</text>

  <!-- ==================== ENTITY: WISHLIST_ITEM (Weak) ==================== -->
  <g id="entity-wishlist-item" transform="translate(870, 1045)">
    <rect x="0" y="0" width="140" height="70" class="weak-outer"/>
    <rect x="4" y="4" width="132" height="62" class="weak-inner"/>
    <text class="entity-label" x="70" y="35">WishlistItem</text>

    <line x1="30" y1="0" x2="10" y2="-45" class="attr-line"/>
    <ellipse cx="0" cy="-65" rx="50" ry="18" class="attr-pk"/>
    <text class="attr-pk-label" x="0" y="-65"><u>id (PK)</u></text>

    <line x1="100" y1="0" x2="120" y2="-45" class="attr-line"/>
    <ellipse cx="135" cy="-65" rx="55" ry="18" class="attr-oval"/>
    <text class="attr-label" x="135" y="-65">created_at</text>
  </g>
  <!-- Identifying Rel: Stores_Items -->
  <g transform="translate(670, 1080)">
    <polygon points="0,-35 50,0 0,35 -50,0" class="id-rel-outer"/>
    <polygon points="0,-28 40,0 0,28 -40,0" class="id-rel-inner"/>
    <text class="rel-label" x="0" y="0" font-size="10">Stores_Items</text>
  </g>
  <rect x="520" y="1068" width="24" height="24" class="card-bg"/>
  <text class="card-badge" x="532" y="1080">1</text>
  <rect x="800" y="1068" width="24" height="24" class="card-bg"/>
  <text class="card-badge" x="812" y="1080">N</text>

  <!-- Rel: WishlistItem to Product (References) -->
  <g transform="translate(1210, 1080)">
    <polygon points="0,-30 45,0 0,30 -45,0" class="rel-diamond"/>
    <text class="rel-label" x="0" y="0" font-size="10">Saves</text>
  </g>
  <rect x="1050" y="1068" width="24" height="24" class="card-bg"/>
  <text class="card-badge" x="1062" y="1080">N</text>
  <rect x="1400" y="700" width="24" height="24" class="card-bg"/>
  <text class="card-badge" x="1412" y="712">1</text>

  <!-- ==================== ENTITY: ORDER (Strong) ==================== -->
  <g id="entity-order" transform="translate(770, 1315)">
    <rect x="0" y="0" width="140" height="70" class="strong-entity"/>
    <text class="entity-label" x="70" y="35">Order</text>

    <!-- Attributes -->
    <line x1="30" y1="0" x2="0" y2="-55" class="attr-line"/>
    <ellipse cx="-15" cy="-75" rx="55" ry="20" class="attr-pk"/>
    <text class="attr-pk-label" x="-15" y="-75"><u>id (PK)</u></text>

    <line x1="90" y1="0" x2="90" y2="-55" class="attr-line"/>
    <ellipse cx="90" cy="-75" rx="55" ry="18" class="attr-oval"/>
    <text class="attr-label" x="90" y="-75">total_amount</text>

    <line x1="140" y1="15" x2="200" y2="-30" class="attr-line"/>
    <ellipse cx="240" cy="-45" rx="60" ry="18" class="attr-oval"/>
    <text class="attr-label" x="240" y="-45">discount_amount</text>

    <!-- Derived Attribute: final_amount -->
    <line x1="140" y1="45" x2="220" y2="40" class="attr-line"/>
    <ellipse cx="280" cy="40" rx="65" ry="19" class="attr-derived"/>
    <text class="attr-derived-label" x="280" y="40">- - final_amount - -</text>

    <line x1="120" y1="70" x2="160" y2="110" class="attr-line"/>
    <ellipse cx="185" cy="130" rx="55" ry="18" class="attr-oval"/>
    <text class="attr-label" x="185" y="130">order_status</text>

    <line x1="70" y1="70" x2="70" y2="120" class="attr-line"/>
    <ellipse cx="70" cy="140" rx="60" ry="18" class="attr-oval"/>
    <text class="attr-label" x="70" y="140">payment_status</text>

    <line x1="20" y1="70" x2="-20" y2="115" class="attr-line"/>
    <ellipse cx="-45" cy="135" rx="55" ry="18" class="attr-oval"/>
    <text class="attr-label" x="-45" y="135">created_at</text>
  </g>
  <!-- Rel: Places (User -> Order) -->
  <g transform="translate(570, 1350)">
    <polygon points="0,-35 50,0 0,35 -50,0" class="rel-diamond"/>
    <text class="rel-label" x="0" y="0">Places</text>
  </g>
  <rect x="340" y="520" width="24" height="24" class="card-bg"/>
  <text class="card-badge" x="352" y="532">1</text>
  <rect x="700" y="1338" width="24" height="24" class="card-bg"/>
  <text class="card-badge" x="712" y="1350">N</text>

  <!-- ==================== ENTITY: PAYMENT (Weak) ==================== -->
  <g id="entity-payment" transform="translate(1350, 1315)">
    <rect x="0" y="0" width="140" height="70" class="weak-outer"/>
    <rect x="4" y="4" width="132" height="62" class="weak-inner"/>
    <text class="entity-label" x="70" y="35">Payment</text>

    <line x1="30" y1="0" x2="0" y2="-55" class="attr-line"/>
    <ellipse cx="-15" cy="-75" rx="50" ry="18" class="attr-pk"/>
    <text class="attr-pk-label" x="-15" y="-75"><u>id (PK)</u></text>

    <line x1="90" y1="0" x2="100" y2="-55" class="attr-line"/>
    <ellipse cx="110" cy="-75" rx="65" ry="18" class="attr-oval"/>
    <text class="attr-label" x="110" y="-75">payment_method</text>

    <line x1="140" y1="35" x2="195" y2="35" class="attr-line"/>
    <ellipse cx="245" cy="35" rx="60" ry="18" class="attr-oval"/>
    <text class="attr-label" x="245" y="35">transaction_id</text>

    <line x1="100" y1="70" x2="120" y2="115" class="attr-line"/>
    <ellipse cx="140" cy="135" rx="45" ry="18" class="attr-oval"/>
    <text class="attr-label" x="140" y="135">amount</text>

    <line x1="30" y1="70" x2="0" y2="115" class="attr-line"/>
    <ellipse cx="-15" cy="135" rx="60" ry="18" class="attr-oval"/>
    <text class="attr-label" x="-15" y="135">payment_status</text>
  </g>
  <!-- Identifying Rel: Settled_With -->
  <g transform="translate(1130, 1350)">
    <polygon points="0,-35 50,0 0,35 -50,0" class="id-rel-outer"/>
    <polygon points="0,-28 40,0 0,28 -40,0" class="id-rel-inner"/>
    <text class="rel-label" x="0" y="0" font-size="10">Settled_With</text>
  </g>
  <rect x="960" y="1338" width="24" height="24" class="card-bg"/>
  <text class="card-badge" x="972" y="1350">1</text>
  <rect x="1270" y="1338" width="24" height="24" class="card-bg"/>
  <text class="card-badge" x="1282" y="1350">1</text>

  <!-- ==================== ENTITY: COUPON (Strong) ==================== -->
  <g id="entity-coupon" transform="translate(770, 1710)">
    <rect x="0" y="0" width="140" height="70" class="strong-entity"/>
    <text class="entity-label" x="70" y="35">Coupon</text>

    <line x1="0" y1="35" x2="-45" y2="35" class="attr-line"/>
    <ellipse cx="-95" cy="35" rx="50" ry="18" class="attr-pk"/>
    <text class="attr-pk-label" x="-95" y="35"><u>id (PK)</u></text>

    <line x1="20" y1="70" x2="-10" y2="115" class="attr-line"/>
    <ellipse cx="-35" cy="135" rx="60" ry="18" class="attr-pk"/>
    <text class="attr-pk-label" x="-35" y="135"><u>code (UK)</u></text>

    <line x1="70" y1="70" x2="70" y2="115" class="attr-line"/>
    <ellipse cx="70" cy="135" rx="55" ry="18" class="attr-oval"/>
    <text class="attr-label" x="70" y="135">discount_value</text>

    <line x1="120" y1="70" x2="160" y2="115" class="attr-line"/>
    <ellipse cx="195" cy="135" rx="60" ry="18" class="attr-oval"/>
    <text class="attr-label" x="195" y="135">minimum_amount</text>
  </g>
  <!-- Rel: Applies -->
  <g transform="translate(840, 1585)">
    <polygon points="0,-35 48,0 0,35 -48,0" class="rel-diamond"/>
    <text class="rel-label" x="0" y="0">Applies</text>
  </g>
  <rect x="848" y="1450" width="24" height="24" class="card-bg"/>
  <text class="card-badge" x="860" y="1462">N</text>
  <rect x="848" y="1650" width="24" height="24" class="card-bg"/>
  <text class="card-badge" x="860" y="1662">1</text>

  <!-- ==================== ENTITY: ORDER_ITEM (Weak) ==================== -->
  <g id="entity-order-item" transform="translate(1170, 1625)">
    <rect x="0" y="0" width="150" height="70" class="weak-outer"/>
    <rect x="4" y="4" width="142" height="62" class="weak-inner"/>
    <text class="entity-label" x="75" y="35">OrderItem</text>

    <line x1="20" y1="70" x2="-10" y2="115" class="attr-line"/>
    <ellipse cx="-35" cy="135" rx="50" ry="18" class="attr-pk"/>
    <text class="attr-pk-label" x="-35" y="135"><u>id (PK)</u></text>

    <line x1="75" y1="70" x2="75" y2="115" class="attr-line"/>
    <ellipse cx="75" cy="135" rx="45" ry="18" class="attr-oval"/>
    <text class="attr-label" x="75" y="135">quantity</text>

    <!-- Derived Attribute: subtotal -->
    <line x1="130" y1="70" x2="160" y2="115" class="attr-line"/>
    <ellipse cx="205" cy="135" rx="55" ry="18" class="attr-derived"/>
    <text class="attr-derived-label" x="205" y="135">- - subtotal - -</text>

    <line x1="150" y1="35" x2="200" y2="35" class="attr-line"/>
    <ellipse cx="245" cy="35" rx="50" ry="18" class="attr-oval"/>
    <text class="attr-label" x="245" y="35">item_status</text>
  </g>
  <!-- Identifying Rel: Consists_Of -->
  <g transform="translate(1020, 1510)">
    <polygon points="0,-35 50,0 0,35 -50,0" class="id-rel-outer"/>
    <polygon points="0,-28 40,0 0,28 -40,0" class="id-rel-inner"/>
    <text class="rel-label" x="0" y="0" font-size="10">Consists_Of</text>
  </g>
  <rect x="910" y="1420" width="24" height="24" class="card-bg"/>
  <text class="card-badge" x="922" y="1432">1</text>
  <rect x="1100" y="1570" width="24" height="24" class="card-bg"/>
  <text class="card-badge" x="1112" y="1582">N</text>

  <!-- ==================== ENTITY: REVIEW (Weak) ==================== -->
  <g id="entity-review" transform="translate(2420, 825)">
    <rect x="0" y="0" width="140" height="70" class="weak-outer"/>
    <rect x="4" y="4" width="132" height="62" class="weak-inner"/>
    <text class="entity-label" x="70" y="35">Review</text>

    <line x1="30" y1="0" x2="10" y2="-45" class="attr-line"/>
    <ellipse cx="0" cy="-65" rx="50" ry="18" class="attr-pk"/>
    <text class="attr-pk-label" x="0" y="-65"><u>id (PK)</u></text>

    <line x1="100" y1="0" x2="120" y2="-45" class="attr-line"/>
    <ellipse cx="135" cy="-65" rx="45" ry="18" class="attr-oval"/>
    <text class="attr-label" x="135" y="-65">rating</text>

    <line x1="140" y1="35" x2="185" y2="35" class="attr-line"/>
    <ellipse cx="230" cy="35" rx="45" ry="18" class="attr-oval"/>
    <text class="attr-label" x="230" y="35">comment</text>

    <line x1="70" y1="70" x2="70" y2="105" class="attr-line"/>
    <ellipse cx="70" cy="125" rx="45" ry="18" class="attr-oval"/>
    <text class="attr-label" x="70" y="125">status</text>
  </g>
  <!-- Rel: Rates/Reviews -->
  <g transform="translate(2240, 845)">
    <polygon points="0,-35 48,0 0,35 -48,0" class="rel-diamond"/>
    <text class="rel-label" x="0" y="0" font-size="10">Rates</text>
  </g>
  <rect x="2340" y="833" width="24" height="24" class="card-bg"/>
  <text class="card-badge" x="2352" y="845">N</text>
  <rect x="2000" y="780" width="24" height="24" class="card-bg"/>
  <text class="card-badge" x="2012" y="792">1</text>
</svg>
